<?xml version="1.0" encoding="utf-8"?>
<!-- Generator: Adobe Illustrator 19.0.0, SVG Export Plug-In . SVG Version: 6.00 Build 0)  -->
<svg version="1.1" id="Layer_1" xmlns="http://www.w3.org/2000/svg" xmlns:xlink="http://www.w3.org/1999/xlink" x="0px" y="0px"
	 viewBox="-79 81 400 400" enable-background="new -79 81 400 400" xml:space="preserve">
<g id="Layer_1_1_">
	<rect x="-78" y="81" fill="#F7F7F7" width="399" height="400"/>
	<rect x="-79" y="80" fill="#FFAB07" width="400" height="401"/>
	<line fill="none" stroke="#F7F7F7" stroke-width="10" stroke-miterlimit="10" x1="109.6" y1="342.4" x2="82.9" y2="429.7"/>
	<line fill="none" stroke="#F7F7F7" stroke-width="10" stroke-miterlimit="10" x1="116.6" y1="342.6" x2="151.6" y2="429.7"/>
	<line fill="none" stroke="#F7F7F7" stroke-width="10" stroke-miterlimit="10" x1="113.1" y1="342.4" x2="113" y2="420.5"/>
</g>
<g id="innercircle">
	<circle fill="#F7F7F7" cx="114.3" cy="239.3" r="49.6"/>
</g>
<g id="circle">
	<circle fill="none" stroke="#F7F7F7" stroke-width="4" stroke-miterlimit="10" cx="115" cy="240" r="69.9"/>
</g>
<g id="smallcircle">
	<circle fill="#FFAB07" cx="113.9" cy="239.2" r="32.5"/>
</g>
<g id="box">
	<path fill="none" stroke="#F7F7F7" stroke-width="10" stroke-miterlimit="10" d="M281,329.3c0,5.9-4.8,10.7-10.7,10.7H-33.3
		c-5.9,0-10.7-4.8-10.7-10.7V141.7c0-5.9,4.8-10.7,10.7-10.7h303.6c5.9,0,10.7,4.8,10.7,10.7L281,329.3L281,329.3z"/>
</g>
<g id="flash">
	<path fill="#F7F7F7" d="M260,179.3c0,5.9-4.8,10.7-10.7,10.7h-40.6c-5.9,0-10.7-4.8-10.7-10.7v-22.6c0-5.9,4.8-10.7,10.7-10.7h40.6
		c5.9,0,10.7,4.8,10.7,10.7V179.3z"/>
</g>
<g id="legs">
</g>
</svg>
