<?xml version="1.0" encoding="utf-8"?>
<!-- Generator: Adobe Illustrator 17.1.0, SVG Export Plug-In . SVG Version: 6.00 Build 0)  -->
<!DOCTYPE svg PUBLIC "-//W3C//DTD SVG 1.1//EN" "http://www.w3.org/Graphics/SVG/1.1/DTD/svg11.dtd">
<svg version="1.1" xmlns="http://www.w3.org/2000/svg" xmlns:xlink="http://www.w3.org/1999/xlink" x="0px" y="0px"
	 viewBox="0 0 400 400" enable-background="new 0 0 400 400" xml:space="preserve">
<g id="Layer_1">
	<rect x="1" fill="#F7F7F7" width="399" height="400"/>
	<rect y="-1" fill="#92A2A5" width="400" height="401"/>
	<path fill="#92A2A5" d="M120,169c0,2.8-2.2,5-5,5H82c-2.8,0-5-2.2-5-5v-19c0-2.8,2.2-5,5-5h33c2.8,0,5,2.2,5,5V169z"/>
	<line fill="none" stroke="#F7F7F7" stroke-width="10" stroke-miterlimit="10" x1="188.6" y1="261.4" x2="161.9" y2="348.7"/>
	<line fill="none" stroke="#F7F7F7" stroke-width="10" stroke-miterlimit="10" x1="195.6" y1="261.6" x2="230.6" y2="348.7"/>
	<line fill="none" stroke="#F7F7F7" stroke-width="10" stroke-miterlimit="10" x1="192.1" y1="261.4" x2="192" y2="339.5"/>
</g>
<g id="innercircle">
	<circle fill="#F7F7F7" cx="193.3" cy="158.3" r="49.6"/>
</g>
<g id="circle">
	<circle fill="none" stroke="#F7F7F7" stroke-width="4" stroke-miterlimit="10" cx="194" cy="159" r="69.9"/>
</g>
<g id="smallcircle">
	<circle fill="#92A2A5" cx="192.9" cy="158.2" r="32.5"/>
</g>
<g id="box">
	<path fill="none" stroke="#F7F7F7" stroke-width="10" stroke-miterlimit="10" d="M360,248.3c0,5.9-4.8,10.7-10.7,10.7H45.7
		c-5.9,0-10.7-4.8-10.7-10.7V60.7C35,54.8,39.8,50,45.7,50h303.6c5.9,0,10.7,4.8,10.7,10.7V248.3z"/>
</g>
<g id="flash">
	<path fill="#F7F7F7" d="M339,98.3c0,5.9-4.8,10.7-10.7,10.7h-40.6c-5.9,0-10.7-4.8-10.7-10.7V75.7c0-5.9,4.8-10.7,10.7-10.7h40.6
		c5.9,0,10.7,4.8,10.7,10.7V98.3z"/>
</g>
<g id="legs">
</g>
</svg>
