<?xml version="1.0" encoding="utf-8"?>
<!-- Generator: Adobe Illustrator 17.1.0, SVG Export Plug-In . SVG Version: 6.00 Build 0)  -->
<!DOCTYPE svg PUBLIC "-//W3C//DTD SVG 1.1//EN" "http://www.w3.org/Graphics/SVG/1.1/DTD/svg11.dtd">
<svg version="1.1" xmlns="http://www.w3.org/2000/svg" xmlns:xlink="http://www.w3.org/1999/xlink" x="0px" y="0px"
	 viewBox="0 0 400 400" enable-background="new 0 0 400 400" xml:space="preserve">
<g id="Layer_1">
	<rect x="1" fill="#F7F7F7" width="399" height="400"/>
	<rect y="-1" fill="#92A2A5" width="400" height="401"/>
	<path fill="#92A2A5" d="M120,169c0,2.8-2.2,5-5,5H82c-2.8,0-5-2.2-5-5v-19c0-2.8,2.2-5,5-5h33c2.8,0,5,2.2,5,5V169z"/>
</g>
<g id="box">
	<g>
		<path fill="#F7F7F7" d="M317,337.4c0,6.6-7,11.6-15.5,11.6H99.5C91,349,84,344,84,337.4V62.9C84,56.3,91,51,99.5,51h201.9
			c8.6,0,15.5,5.3,15.5,11.9V337.4z"/>
		<g>
			<path fill="#92A2A5" d="M311,337.4c-0.4,7.1-13.7,5.6-18.7,5.6c-11,0-21.9,0-32.9,0c-31.9,0-63.8,0-95.7,0c-21,0-42,0-63,0
				c-3.8,0-10.5-0.7-10.8-5.6c-0.1-1,0-1.9,0-2.9c0-7,0-14,0-21.1c0-59.9,0-119.8,0-179.6c0-21.5,0-43.1,0-64.6c0-1.9,0-3.7,0-5.6
				c0-4.7,5.5-6.6,9.6-6.6c5.3,0,10.5,0,15.8,0c57,0,113.9,0,170.9,0c5.1,0,10.2,0,15.2,0c4.1,0,9.5,2,9.5,6.7c0,1.9,0,3.8,0,5.8
				c0,21.7,0,43.5,0,65.2c0,59.8,0,119.6,0,179.3C311,321.8,311,329.6,311,337.4c0,7.7,12,7.7,12,0c0-43.7,0-87.5,0-131.2
				c0-47.5,0-95,0-142.5c0-22.7-30.3-18.6-45.4-18.6c-30.2,0-60.4,0-90.5,0c-26.3,0-52.5,0-78.8,0c-8.5,0-17.6-0.6-24.4,5.6
				c-6,5.5-5.8,12-5.8,19.2c0,54.3,0,108.7,0,163c0,27.2,0,54.5,0,81.7c0,6.8,0,13.6,0,20.3c0,1.8,0,3.5,0.3,5.2
				C80.1,350,90.4,355,99.6,355c50.4,0,100.8,0,151.2,0c14,0,27.9,0,41.9,0c2.8,0,5.5,0,8.3,0c10.7,0,21.2-6.1,21.9-17.6
				C323.5,329.7,311.5,329.7,311,337.4z"/>
		</g>
	</g>
	<g>
		<g>
			<path fill="#92A2A5" d="M108,116c36.7,0,73.3,0,110,0c7.7,0,7.7-12,0-12c-36.7,0-73.3,0-110,0C100.3,104,100.3,116,108,116
				L108,116z"/>
		</g>
	</g>
	<g>
		<g>
			<path fill="#92A2A5" d="M108,148c49.8,0,99.7,0,149.5,0c11.8,0,23.7,0,35.5,0c7.7,0,7.7-12,0-12c-49.8,0-99.7,0-149.5,0
				c-11.8,0-23.7,0-35.5,0C100.3,136,100.3,148,108,148L108,148z"/>
		</g>
	</g>
	<g>
		<g>
			<path fill="#92A2A5" d="M108,176c49.8,0,99.7,0,149.5,0c11.8,0,23.7,0,35.5,0c7.7,0,7.7-12,0-12c-49.8,0-99.7,0-149.5,0
				c-11.8,0-23.7,0-35.5,0C100.3,164,100.3,176,108,176L108,176z"/>
		</g>
	</g>
	<g>
		<g>
			<path fill="#92A2A5" d="M108,205c49.8,0,99.7,0,149.5,0c11.8,0,23.7,0,35.5,0c7.7,0,7.7-12,0-12c-49.8,0-99.7,0-149.5,0
				c-11.8,0-23.7,0-35.5,0C100.3,193,100.3,205,108,205L108,205z"/>
		</g>
	</g>
</g>
</svg>
