<?xml version="1.0" encoding="utf-8"?>
<!-- Generator: Adobe Illustrator 19.0.0, SVG Export Plug-In . SVG Version: 6.00 Build 0)  -->
<svg version="1.1" xmlns="http://www.w3.org/2000/svg" xmlns:xlink="http://www.w3.org/1999/xlink" x="0px" y="0px"
	 viewBox="0 0 400 400" enable-background="new 0 0 400 400" xml:space="preserve">
<g id="Layer_1">
	<rect x="1" fill="#F7F7F7" width="399" height="400"/>
	<rect y="-1" fill="#FFAB07" width="400" height="401"/>
</g>
<g id="box">
	<g>
		<path fill="#F7F7F7" d="M317,337.4c0,6.6-7,11.6-15.5,11.6H99.5C91,349,84,344,84,337.4V62.9C84,56.3,91,51,99.5,51h201.9
			c8.6,0,15.5,5.3,15.5,11.9V337.4z"/>
		<g>
			<path fill="#FFAB07" d="M311,337.4c-0.5,8.5-25.7,5.6-30.8,5.6c-20.4,0-40.9,0-61.3,0c-38.4,0-76.8,0-115.2,0
				c-4.6,0-12.2,0.5-13.7-4.9c-0.5-1.9-0.1-4.4-0.1-6.3c0-13.4,0-26.9,0-40.3c0-45.2,0-90.4,0-135.6c0-30.5-0.5-61,0-91.5
				c0.1-9.3,14.3-7.4,20.8-7.4c18.1,0,36.2,0,54.4,0c41.6,0,83.2,0,124.7,0c6.5,0,20.9-2,21.1,7.3c0.2,10.5,0,21,0,31.5
				c0,43.7,0,87.4,0,131.2c0,34.9,0,69.9,0,104.8C311,333.7,311,335.5,311,337.4c0,7.7,12,7.7,12,0c0-27.2,0-54.5,0-81.7
				c0-46.8,0-93.7,0-140.5c0-15,0-30,0-45c0-2.4,0.1-4.8,0-7.2c-0.5-11.8-11.5-17.8-22.3-18c-36-0.4-72.1,0-108.2,0
				c-22.1,0-44.2,0-66.3,0c-6.8,0-13.6,0-20.4,0c-4.5,0-9.2-0.3-13.6,1c-8.8,2.7-14.1,9.6-14.2,18.6c0,4,0,8.1,0,12.1
				c0,17.1,0,34.2,0,51.3c0,47.3,0,94.6,0,142c0,17.4,0,34.9,0,52.3c0,4.3,0,8.6,0,12.9c0,8.1,3.9,14.6,11.7,17.8
				c5,2.1,10.1,1.9,15.4,1.9c6.6,0,13.1,0,19.7,0c21.7,0,43.5,0,65.2,0c36.8,0,73.6,0.3,110.4,0c10.9-0.1,21.9-5.6,22.6-17.6
				C323.5,329.7,311.5,329.7,311,337.4z"/>
		</g>
	</g>
	<g>
		<g>
			<path fill="#FFAB07" d="M108,116c32.1,0,64.2,0,96.2,0c4.6,0,9.2,0,13.8,0c7.7,0,7.7-12,0-12c-32.1,0-64.2,0-96.2,0
				c-4.6,0-9.2,0-13.8,0C100.3,104,100.3,116,108,116L108,116z"/>
		</g>
	</g>
	<g>
		<g>
			<path fill="#FFAB07" d="M108,148c20.8,0,41.7,0,62.5,0c33.2,0,66.4,0,99.6,0c7.6,0,15.2,0,22.8,0c7.7,0,7.7-12,0-12
				c-20.8,0-41.7,0-62.5,0c-33.2,0-66.4,0-99.6,0c-7.6,0-15.2,0-22.8,0C100.3,136,100.3,148,108,148L108,148z"/>
		</g>
	</g>
	<g>
		<g>
			<path fill="#FFAB07" d="M108,176c20.8,0,41.7,0,62.5,0c33.2,0,66.4,0,99.6,0c7.6,0,15.2,0,22.8,0c7.7,0,7.7-12,0-12
				c-20.8,0-41.7,0-62.5,0c-33.2,0-66.4,0-99.6,0c-7.6,0-15.2,0-22.8,0C100.3,164,100.3,176,108,176L108,176z"/>
		</g>
	</g>
	<g>
		<g>
			<path fill="#FFAB07" d="M108,205c20.8,0,41.7,0,62.5,0c33.2,0,66.4,0,99.6,0c7.6,0,15.2,0,22.8,0c7.7,0,7.7-12,0-12
				c-20.8,0-41.7,0-62.5,0c-33.2,0-66.4,0-99.6,0c-7.6,0-15.2,0-22.8,0C100.3,193,100.3,205,108,205L108,205z"/>
		</g>
	</g>
</g>
</svg>
