<?xml version="1.0" encoding="utf-8"?>
<!-- Generator: Adobe Illustrator 17.1.0, SVG Export Plug-In . SVG Version: 6.00 Build 0)  -->
<!DOCTYPE svg PUBLIC "-//W3C//DTD SVG 1.1//EN" "http://www.w3.org/Graphics/SVG/1.1/DTD/svg11.dtd">
<svg version="1.1" xmlns="http://www.w3.org/2000/svg" xmlns:xlink="http://www.w3.org/1999/xlink" x="0px" y="0px"
	 viewBox="0 0 400 400" enable-background="new 0 0 400 400" xml:space="preserve">
<g id="Layer_1">
	<rect x="1" fill="#F7F7F7" width="399" height="400"/>
	<rect y="-1" fill="#92A2A5" width="400" height="401"/>
</g>
<g id="line">
	<g>
		<g>
			<path fill="#F7F7F7" d="M216.2,194.9c-21.3-1.1-46.5,1.1-64.3,13.9c-5.3,3.8-14.8,12.7-9.5,19.6c2.1,2.8,6.1,3.7,9.3,4.5
				c5.6,1.3,9.9,3,14.3,6.8c4.6,4,8.6,10,7.6,16.3c-0.6,4.1-4.1,7.1-7.4,9c-6.5,3.7-14.7,4.3-21.9,5.2c-10.6,1.3-28.7,1.6-33.1,13.8
				c-1.7,4.8-0.8,9.4-0.4,14.3c0.6,8.1-2.7,14.2-9.2,18.8c-14.2,10-33.1,7.7-48.6,14.4c-1.5,0.6-0.2,2.8,1.3,2.2
				c17.8-7.7,54.2-3.9,58.8-29.1c1.4-7.9-3.2-16.6,2.8-23.4c4.4-5.1,12.5-6.3,18.7-7.2c12.3-1.9,30-0.9,38.7-11.5
				c5.7-6.9,2.3-15.5-2.7-21.6c-3-3.6-7-6.5-11.2-8.4c-4.1-1.9-8.8-1.9-12.9-3.9c-9-4.4,3.3-15.2,7.7-18.3
				c5.8-4.2,12.7-6.7,19.6-8.6c13.7-3.9,28.3-4.9,42.5-4.2C217.9,197.5,217.9,195,216.2,194.9L216.2,194.9z"/>
		</g>
	</g>
</g>
<g id="pen">
	<g>
		<path fill="#F7F7F7" d="M222.1,170.7l81.1-83.4c0,0,3,14.5,20.9,20.2l-80.6,82.6l-28.3,7.2L222.1,170.7z"/>
		<path fill="#F7F7F7" d="M319.2,71.5l-11.3,11.3c0,0-2.5,12,21.1,21.1l12.7-12.7C341.7,91.2,340.6,73.6,319.2,71.5z"/>
	</g>
</g>
<g id="box">
	<path fill="none" stroke="#F7F7F7" stroke-width="14" stroke-miterlimit="10" d="M369,353.2c0,6.5-5.9,11.8-12.7,11.8H42.6
		c-6.8,0-12.6-5.3-12.6-11.8V44.8C30,38.3,35.8,33,42.6,33h313.7c6.8,0,12.7,5.3,12.7,11.8V353.2z"/>
</g>
</svg>
