<?xml version="1.0" encoding="utf-8"?>
<!-- Generator: Adobe Illustrator 17.1.0, SVG Export Plug-In . SVG Version: 6.00 Build 0)  -->
<!DOCTYPE svg PUBLIC "-//W3C//DTD SVG 1.1//EN" "http://www.w3.org/Graphics/SVG/1.1/DTD/svg11.dtd">
<svg version="1.1" id="Layer_1" xmlns="http://www.w3.org/2000/svg" xmlns:xlink="http://www.w3.org/1999/xlink" x="0px" y="0px"
	 viewBox="0 0 640 480" enable-background="new 0 0 640 480" xml:space="preserve">
<rect y="53.3" fill="#92A2A5" width="640" height="373.3"/>
<path fill="#758284" d="M409.3,400.5h-67.5l-0.2-55.8H230.9v55.8h-75.8V114.7h185.8c0,0-28.5,40-16.9,88.2c0,0,9.3,61.8,85.3,79.8"
	/>
<path fill="#758284" d="M439.3,351.4v40.1c0,0,18,9.6,33,8.8c0,0,25.9,2.5,43.3-23.7c4.3-6.5,6.3-17.1,7.9-28
	c0.3-2.5,0.4-8.6,0.6-10.2l0.2-172.1c0.5,3.5-14.3,55.1-27.3,73.1v93.5c0,0-0.4,20.5-10.1,28.1C474.4,370.9,450.9,367.1,439.3,351.4
	z"/>
<circle fill="#758284" cx="435" cy="173.5" r="89.5"/>
<circle fill="#92A2A5" cx="437" cy="172.8" r="59.7"/>
</svg>
