<?xml version="1.0" encoding="utf-8"?>
<!-- Generator: Adobe Illustrator 19.1.0, SVG Export Plug-In . SVG Version: 6.00 Build 0)  -->
<svg version="1.1" id="Layer_1" xmlns="http://www.w3.org/2000/svg" xmlns:xlink="http://www.w3.org/1999/xlink" x="0px" y="0px"
	 viewBox="170 -115 640 480" style="enable-background:new 170 -115 640 480;" xml:space="preserve">
<style type="text/css">
	.st0{fill:#758284;}
</style>
<g>
	<path class="st0" d="M579.3,285.5h-67.5l-0.2-55.8H400.9v55.8h-75.8V-0.3h185.8c0,0-28.5,40-16.9,88.2c0,0,9.3,61.8,85.3,79.8"/>
	<path class="st0" d="M609.3,236.4v40.1c0,0,18,9.6,33,8.8c0,0,25.9,2.5,43.3-23.7c4.3-6.5,6.3-17.1,7.9-28
		c0.3-2.5,0.4-8.6,0.6-10.2l0.2-172.1c0.5,3.5-14.3,55.1-27.3,73.1v93.5c0,0-0.4,20.5-10.1,28.1
		C644.4,255.9,620.9,252.1,609.3,236.4z"/>
	<path class="st0" d="M605-31c-49.4,0-89.5,40.1-89.5,89.5S555.6,148,605,148c49.4,0,89.5-40.1,89.5-89.5S654.4-31,605-31z
		 M607,117.5c-33,0-59.7-26.7-59.7-59.7c0-33,26.7-59.7,59.7-59.7c33,0,59.7,26.7,59.7,59.7C666.7,90.8,640,117.5,607,117.5z"/>
</g>
</svg>
