<?xml version="1.0" encoding="utf-8"?>
<!-- Generator: Adobe Illustrator 17.1.0, SVG Export Plug-In . SVG Version: 6.00 Build 0)  -->
<!DOCTYPE svg PUBLIC "-//W3C//DTD SVG 1.1//EN" "http://www.w3.org/Graphics/SVG/1.1/DTD/svg11.dtd">
<svg version="1.1" id="Layer_1" xmlns="http://www.w3.org/2000/svg" xmlns:xlink="http://www.w3.org/1999/xlink" x="0px" y="0px"
	 viewBox="0 0 800 500" enable-background="new 0 0 800 500" xml:space="preserve">
<path fill="#758284" d="M329.2,450.6h-84.4l-0.2-69.8H106.2v69.8H11.4V93.3h232.3c0,0-35.6,50-21.1,110.3c0,0,11.7,77.2,106.7,99.8"
	/>
<path fill="#758284" d="M366.7,389.2v50.2c0,0,22.5,12,41.2,11c0,0,32.4,3.1,54.2-29.6c5.4-8.1,7.9-21.4,9.8-35
	c0.4-3.1,0.5-10.8,0.8-12.8l0.2-215.1c0.6,4.3-17.9,68.8-34.2,91.4v116.9c0,0-0.5,25.7-12.6,35.1
	C410.5,413.7,381.1,408.8,366.7,389.2z"/>
<path fill="#758284" d="M361.3,55c-61.8,0-111.8,50.1-111.8,111.8s50.1,111.8,111.8,111.8s111.8-50.1,111.8-111.8S423.1,55,361.3,55
	z M363.8,240.6c-41.2,0-74.6-33.4-74.6-74.6s33.4-74.6,74.6-74.6s74.6,33.4,74.6,74.6S405,240.6,363.8,240.6z"/>
<g>
	<path fill="#758284" d="M539.3,364.2c-1.7,1.7-3.5,2.9-5.3,3.8c-1.9,0.8-3.9,1.2-6.2,1.2c-3,0-5.8-0.7-8.4-2
		c-2.7-1.3-4.9-3.1-6.9-5.3c-2-2.2-3.6-4.8-4.7-7.8c-1.2-2.9-1.7-6-1.7-9.2s0.6-6.3,1.7-9.2c1.2-2.9,2.8-5.4,4.8-7.5
		c2.1-2.2,4.4-3.8,7.2-5.1s5.8-1.8,8.9-1.8c4.2,0,7.8,0.9,11,2.8c3.2,1.8,5.5,4.3,7.1,7.6l-8.2,6.2c-1-2.2-2.4-3.8-4.2-5
		c-1.8-1.2-3.8-1.8-6-1.8c-1.7,0-3.2,0.3-4.6,1.1s-2.5,1.8-3.5,3.1c-1,1.3-1.7,2.8-2.3,4.6c-0.5,1.8-0.8,3.6-0.8,5.6
		c0,2.1,0.2,3.9,0.8,5.7c0.6,1.8,1.4,3.2,2.4,4.5s2.2,2.3,3.7,3c1.4,0.7,3,1.1,4.7,1.1c1.9,0,3.8-0.5,5.6-1.4c1.8-0.9,3.4-2.4,5-4.3
		v-1.6h-9.2v-7.9h18.2V369h-9.1L539.3,364.2L539.3,364.2z"/>
	<path fill="#758284" d="M576.9,342.8c-2.6,0.1-4.9,0.5-7,1.2c-2.1,0.8-3.6,2-4.6,3.6v21h-10.7v-35h9.8v7.1c1.2-2.3,2.8-4.2,4.7-5.5
		c1.9-1.3,3.9-2,6-2.1c0.9,0,1.4,0,1.7,0.1L576.9,342.8L576.9,342.8z"/>
	<path fill="#758284" d="M590.9,369.4c-1.8,0-3.3-0.2-4.8-0.8s-2.8-1.3-3.8-2.3c-1.1-1-1.9-2.2-2.5-3.5c-0.6-1.3-0.9-2.8-0.9-4.4
		c0-1.8,0.3-3.3,1.1-4.8c0.8-1.4,1.7-2.7,3.1-3.7c1.3-1,2.9-1.8,4.8-2.4c1.8-0.6,3.8-0.8,6.1-0.8c1.5,0,2.9,0.1,4.2,0.3
		c1.4,0.2,2.6,0.6,3.6,1.1v-1.6c0-4.1-2.3-6.1-7-6.1c-1.9,0-3.8,0.3-5.5,1c-1.7,0.7-3.6,1.6-5.5,2.9l-3.2-6.7
		c2.3-1.5,4.8-2.7,7.2-3.4c2.5-0.8,5.2-1.2,7.9-1.2c5.2,0,9.4,1.2,12.2,3.8c2.9,2.5,4.3,6.2,4.3,10.9v9c0,1.1,0.2,1.8,0.6,2.2
		c0.4,0.4,1.1,0.7,2.2,0.8v9c-1,0.2-2,0.3-2.8,0.4s-1.7,0.1-2.3,0.1c-1.9-0.1-3.4-0.4-4.5-1.2c-1-0.8-1.7-1.8-1.9-3.2l-0.2-1.6
		c-1.6,2-3.4,3.5-5.6,4.6C595.4,368.9,593.3,369.4,590.9,369.4z M594.1,361.8c1.2,0,2.3-0.2,3.3-0.6s2-0.9,2.7-1.6
		c1-0.8,1.5-1.7,1.5-2.5v-3.3c-0.9-0.3-1.9-0.7-3-0.8c-1.1-0.2-2.1-0.3-3-0.3c-1.9,0-3.6,0.4-4.8,1.3c-1.2,0.9-1.9,2.1-1.9,3.5
		c0,1.2,0.5,2.3,1.5,3.2C591.3,361.3,592.6,361.8,594.1,361.8z"/>
	<path fill="#758284" d="M618.8,374c1,0.3,1.9,0.5,2.7,0.7c0.8,0.2,1.6,0.2,2.2,0.2c1.2,0,2.1-0.4,2.8-1.3c0.8-0.9,1.3-2.5,1.8-4.8
		l-13.2-35h10.9l8.2,25.8l7-25.8h9.9l-13.4,40.7c-1,2.9-2.7,5.2-5,7c-2.3,1.8-5,2.7-8.1,2.7c-1,0-1.9-0.1-2.9-0.2
		c-1-0.2-1.9-0.4-2.9-0.8L618.8,374L618.8,374z"/>
	<path fill="#758284" d="M541.9,439.2v9.6h-33.2v-47.3h32.7v9.6h-21.8v9.2h18.7v8.8h-18.7v10.2H541.9z"/>
	<path fill="#758284" d="M547.8,400.1h10.7v35.6c0,2.7,1.2,4,3.5,4c0.5,0,1.1-0.1,1.7-0.2c0.7-0.2,1.2-0.4,1.8-0.7l1.4,8.6
		c-1.3,0.6-2.8,1.1-4.6,1.5c-1.8,0.3-3.3,0.5-4.8,0.5c-3.1,0-5.4-0.8-7.1-2.4c-1.7-1.6-2.5-3.9-2.5-6.9V400.1z"/>
	<path fill="#758284" d="M587.2,449.4c-2.9,0-5.6-0.5-7.9-1.4c-2.3-0.9-4.3-2.2-5.9-3.9c-1.6-1.7-2.8-3.6-3.7-5.7
		c-0.8-2.2-1.2-4.4-1.2-6.8c0-2.5,0.4-4.9,1.2-7.2s2.1-4.2,3.7-5.9c1.6-1.7,3.6-3,5.9-4c2.3-1,5-1.5,8-1.5s5.6,0.5,7.9,1.5
		s4.2,2.3,5.8,4c1.6,1.7,2.8,3.6,3.7,5.8c0.8,2.2,1.2,4.5,1.2,6.8c0,0.6,0,1.2-0.1,1.8s-0.1,1.1-0.2,1.6h-25.8
		c0.2,2.3,1,4.2,2.6,5.3c1.5,1.2,3.2,1.8,5.2,1.8c1.6,0,3.1-0.4,4.5-1.2s2.4-1.8,2.9-3.1l9.1,2.5c-1.4,2.8-3.5,5-6.4,6.8
		C594.8,448.5,591.2,449.4,587.2,449.4z M594.6,427.9c-0.2-2.2-1-4-2.4-5.2s-3.1-1.9-5.2-1.9c-2.1,0-3.8,0.7-5.2,2
		c-1.3,1.3-2.2,3.1-2.3,5.2L594.6,427.9L594.6,427.9z"/>
	<path fill="#758284" d="M632.8,449.4c-2.7,0-5-0.6-6.9-1.7c-1.9-1.1-3.5-2.7-4.6-4.7v19.8h-10.7v-49.2h9.3v5.7
		c1.2-2,2.9-3.6,4.8-4.7c1.9-1.1,4.2-1.7,6.8-1.7c2.3,0,4.5,0.5,6.5,1.4c2,0.9,3.8,2.2,5.2,3.8c1.4,1.6,2.6,3.5,3.4,5.7
		c0.8,2.2,1.2,4.6,1.2,7.1c0,2.6-0.4,5.1-1.2,7.2c-0.8,2.3-1.8,4.2-3.2,5.8c-1.3,1.6-2.9,2.9-4.8,3.8
		C637.1,448.9,635.1,449.4,632.8,449.4z M629.2,440.4c1.2,0,2.3-0.2,3.2-0.8c0.9-0.5,1.8-1.2,2.5-2c0.8-0.8,1.2-1.8,1.7-3
		c0.4-1.2,0.6-2.3,0.6-3.6s-0.2-2.5-0.7-3.6c-0.4-1.1-1-2-1.8-2.8c-0.8-0.8-1.6-1.4-2.7-1.8c-1-0.4-2.2-0.7-3.4-0.7
		c-1.5,0-2.8,0.4-4.2,1.3c-1.3,0.8-2.4,2-3.2,3.5v7.2c0.8,1.8,1.7,3.2,3.2,4.5C626,439.8,627.6,440.4,629.2,440.4z"/>
	<path fill="#758284" d="M687,448.8h-10.7v-19.7c0-2.2-0.4-3.9-1.3-5c-0.9-1.1-2.2-1.6-3.7-1.6c-0.6,0-1.3,0.2-2,0.4
		c-0.8,0.2-1.4,0.8-2.2,1.2c-0.7,0.6-1.3,1.2-1.9,2c-0.6,0.8-1,1.6-1.3,2.5v20.1h-10.7v-48.7h10.7v19.5c1.2-2.1,3-3.7,5.1-4.8
		c2.1-1.2,4.4-1.7,7-1.7c2.3,0,4.2,0.4,5.7,1.2s2.6,1.8,3.3,3.2c0.8,1.2,1.3,2.7,1.6,4.2c0.2,1.6,0.4,3.1,0.4,4.7L687,448.8
		L687,448.8z"/>
	<path fill="#758284" d="M703.9,449.4c-1.8,0-3.3-0.2-4.8-0.8c-1.5-0.6-2.7-1.3-3.8-2.3c-1.1-1-1.9-2.2-2.5-3.5
		c-0.6-1.3-0.9-2.8-0.9-4.4c0-1.8,0.3-3.3,1.1-4.8c0.8-1.4,1.8-2.7,3.1-3.7c1.3-1,2.9-1.8,4.8-2.4c1.8-0.6,3.8-0.8,6.1-0.8
		c1.5,0,2.9,0.1,4.2,0.3c1.4,0.2,2.6,0.6,3.6,1.1v-1.6c0-4.1-2.3-6.1-7-6.1c-1.9,0-3.8,0.3-5.5,1c-1.8,0.7-3.6,1.6-5.5,2.9l-3.2-6.7
		c2.3-1.5,4.8-2.7,7.2-3.4c2.5-0.8,5.2-1.2,7.9-1.2c5.2,0,9.4,1.2,12.2,3.8c2.9,2.5,4.3,6.2,4.3,10.9v9c0,1.1,0.2,1.8,0.6,2.2
		c0.4,0.4,1.1,0.7,2.2,0.8v9c-1,0.2-2,0.3-2.8,0.4c-0.8,0.1-1.7,0.1-2.3,0.1c-1.9-0.1-3.4-0.4-4.5-1.2c-1-0.8-1.7-1.8-1.9-3.3
		l-0.2-1.6c-1.6,2-3.4,3.5-5.6,4.6C708.4,448.9,706.3,449.4,703.9,449.4z M707.1,441.8c1.2,0,2.2-0.2,3.3-0.6c1.1-0.4,2-0.9,2.7-1.6
		c1-0.8,1.5-1.7,1.5-2.5v-3.3c-0.9-0.3-1.9-0.7-3-0.8c-1.1-0.2-2.1-0.3-3-0.3c-1.9,0-3.6,0.4-4.8,1.3c-1.2,0.9-1.9,2.1-1.9,3.5
		c0,1.2,0.5,2.3,1.5,3.2C704.3,441.3,705.6,441.8,707.1,441.8z"/>
	<path fill="#758284" d="M767.1,448.8h-10.7v-19.7c0-2.3-0.4-4-1.3-5c-0.8-1.1-2-1.6-3.4-1.6c-0.8,0-1.5,0.2-2.3,0.5
		c-0.8,0.3-1.5,0.8-2.2,1.3c-0.7,0.6-1.3,1.2-1.9,2c-0.6,0.8-1,1.6-1.3,2.5v20.1h-10.7v-35h9.6v5.8c1.2-2.1,3.1-3.7,5.5-4.8
		c2.3-1.2,5.1-1.7,8.2-1.7c2.2,0,4.1,0.4,5.5,1.2c1.4,0.8,2.5,1.9,3.2,3.2c0.8,1.3,1.2,2.7,1.5,4.3c0.2,1.6,0.3,3.1,0.3,4.5
		L767.1,448.8L767.1,448.8z"/>
	<path fill="#758284" d="M796.6,446.8c-1.5,0.6-3.2,1.2-5,1.7c-1.8,0.5-3.8,0.8-5.8,0.8c-1.3,0-2.6-0.2-3.8-0.5
		c-1.2-0.3-2.2-0.8-3.1-1.6c-0.9-0.8-1.6-1.7-2.1-2.9c-0.5-1.2-0.8-2.7-0.8-4.3v-18.2h-4.5v-8.1h4.5v-11.2h10.7v11.2h7.2v8.1h-7.2
		v14.6c0,1.2,0.3,2,0.9,2.5s1.3,0.8,2.2,0.8c0.8,0,1.6-0.2,2.4-0.4c0.8-0.2,1.6-0.6,2.2-0.8L796.6,446.8z"/>
</g>
</svg>
