<?xml version="1.0" encoding="utf-8"?>
<!-- Generator: Adobe Illustrator 17.1.0, SVG Export Plug-In . SVG Version: 6.00 Build 0)  -->
<!DOCTYPE svg PUBLIC "-//W3C//DTD SVG 1.1//EN" "http://www.w3.org/Graphics/SVG/1.1/DTD/svg11.dtd">
<svg version="1.1" xmlns="http://www.w3.org/2000/svg" xmlns:xlink="http://www.w3.org/1999/xlink" x="0px" y="0px"
	 viewBox="0 0 400 400" enable-background="new 0 0 400 400" xml:space="preserve">
<g id="Layer_1">
	<rect x="1" fill="#F7F7F7" width="399" height="400"/>
	<rect fill="#92A2A5" width="400" height="401"/>
	<path fill="#92A2A5" d="M120,169c0,2.8-2.2,5-5,5H82c-2.8,0-5-2.2-5-5v-19c0-2.8,2.2-5,5-5h33c2.8,0,5,2.2,5,5V169z"/>
</g>
<g id="people">
	<circle fill="#F7F7F7" cx="189.7" cy="171.7" r="23.3"/>
	<circle fill="#F7F7F7" cx="241" cy="184.5" r="18"/>
	<path fill="#F7F7F7" d="M223,239c0,21.4-64.7,21.4-64.7,0s14.5-38.7,32.3-38.7S223,217.6,223,239z"/>
	<path fill="#F7F7F7" d="M262.3,232c0,13-44,13-44,0c0-12,9.8-22.7,22-22.7C252.5,209.3,262.3,220,262.3,232z"/>
</g>
<g id="circle">
	<g>
		<g>
			<path fill="#F7F7F7" d="M93.4,85.1c3.7-2.7,7-6,10.6-8.8c9.1-7,18.9-13,29.2-18.2C163.8,42.7,198.8,37.7,232,47
				c5.6,1.6,8-7.1,2.4-8.7c-34.3-9.6-69.7-4.7-101.7,10.1C121.6,53.6,111,60,101.2,67.3c-3.2,2.4-6.4,4.8-9.4,7.4
				c-0.9,0.8-1.8,1.5-2.7,2.3c-0.4,0.4-2.1,1.7-0.2,0.3C84.2,80.7,88.7,88.6,93.4,85.1L93.4,85.1z"/>
		</g>
	</g>
	<g>
		<g>
			<path fill="#F7F7F7" d="M343.9,166.4c0.1,4.7,1,9.4,1.2,14.1c0.5,11.3,0,22.7-1.6,33.9c-4.9,34.1-20.4,65.5-47,87.8
				c-4.5,3.7,1.9,10.1,6.4,6.4c27.2-22.7,43.4-54.9,49-89.6c2-12.2,2.7-24.7,2.3-37.1c-0.2-5.2-1.2-10.3-1.3-15.5
				C352.7,160.6,343.7,160.6,343.9,166.4L343.9,166.4z"/>
		</g>
	</g>
	<g>
		<g>
			<path fill="#F7F7F7" d="M127.2,327c-3.7-2.8-8-5.1-11.8-7.8c-9.2-6.6-17.7-14.3-25.5-22.5c-23.3-24.6-38.1-56.2-39-90.3
				c-0.1-5.8-9.1-5.8-9,0c0.9,36,16.2,68.9,40.2,95.2c8.4,9.1,17.7,17.3,27.7,24.6c4.1,3.1,8.8,5.5,12.9,8.6
				C127.3,338.3,131.7,330.5,127.2,327L127.2,327z"/>
		</g>
	</g>
</g>
<g id="speach">
	<path fill="#F7F7F7" d="M354.1,66h-93.1c-5.5,0-9.9,4.4-9.9,9.9v51.1c0,5.5,4.4,9.9,9.9,9.9h6.1v20l21.4-20h65.6
		c5.5,0,9.9-4.4,9.9-9.9V75.9C364,70.4,359.6,66,354.1,66z"/>
</g>
<g id="mail">
	<g>
		<path fill="#F7F7F7" d="M270,359c0,5.5-4.5,10-10,10h-94c-5.5,0-10-4.5-10-10v-51c0-5.5,4.5-10,10-10h94c5.5,0,10,4.5,10,10V359z"
			/>
		<g>
			<g>
				<path fill="#92A2A5" d="M172.5,316.3c12.6,9.3,25.1,18.7,37.7,28c4.7,3.5,9.1-4.4,4.5-7.8c-12.6-9.3-25.1-18.7-37.7-28
					C172.4,305.1,167.9,312.9,172.5,316.3L172.5,316.3z"/>
			</g>
		</g>
		<g>
			<g>
				<path fill="#92A2A5" d="M248.2,308.5c-12.6,9.3-25.1,18.7-37.7,28c-4.6,3.4-0.1,11.2,4.5,7.8c12.6-9.3,25.1-18.7,37.7-28
					C257.3,312.9,252.8,305.1,248.2,308.5L248.2,308.5z"/>
			</g>
		</g>
	</g>
</g>
<g id="thumb">
	<g>
		<path fill="#F7F7F7" d="M100.9,128H84v-19c0,0-5-10.3-12.5-1.3l-7.2,19.8l-3.4,0.5h-0.1c-3.4,0-5.8,2.4-5.8,5.4v20.6
			c0,3,2.4,5.9,5.8,5.9c0,0,3.4,0.7,7.5,4.9s2.1,4.1,4.1,4.1h30.1c2.5,0,4.6-2.9,4.6-5.9v-9v-11.6v-9C107,130.4,104.3,128,100.9,128
			z"/>
		<path fill="#F7F7F7" d="M42,123H29c-2.8,0-5,2.2-5,5v34c0,2.8,2.2,5,5,5h13c2.8,0,5-2.2,5-5v-34C47,125.2,44.8,123,42,123z"/>
	</g>
</g>
</svg>
