<?xml version="1.0" encoding="utf-8"?>
<!-- Generator: Adobe Illustrator 19.0.0, SVG Export Plug-In . SVG Version: 6.00 Build 0)  -->
<svg version="1.1" id="Layer_1" xmlns="http://www.w3.org/2000/svg" xmlns:xlink="http://www.w3.org/1999/xlink" x="0px" y="0px"
	 viewBox="-79 81 400 400" enable-background="new -79 81 400 400" xml:space="preserve">
<g id="Layer_1_1_">
	<rect x="-78" y="81" fill="#F7F7F7" width="399" height="400"/>
	<rect x="-79" y="81" fill="#FFAB07" width="400" height="401"/>
</g>
<g id="Layer_4">
	<path fill="#F7F7F7" d="M252.9,144H-45.4c-6.4,0-11.6,5.2-11.6,11.6v190.8c0,6.4,5.2,11.6,11.6,11.6H71.5
		c-8.3,8-20.9,28.7-20.9,28.7c0,6.4,5.2,11.3,11.6,11.3h92.5c6.4,0,11.6-4.9,11.6-11.3c0,0-12.8-20.7-21.3-28.7h108
		c6.4,0,12.1-5.3,12.1-11.6V155.6C265,149.2,259.3,144,252.9,144z"/>
	<path fill="#FFAB07" d="M285,379.9c0,6.4-4.5,12.1-11.4,12.1H182c-6.8,0-13-5.7-13-12.1V263.1c0-6.4,6.2-11.1,13-11.1h91.6
		c6.8,0,11.4,4.7,11.4,11.1V379.9z"/>
</g>
<g id="Layer_3">
	<path fill="#F7F7F7" d="M286,387.4c0,6.4-5.2,11.6-11.6,11.6h-85.9c-6.4,0-11.6-5.2-11.6-11.6V270.6c0-6.4,5.2-11.6,11.6-11.6h85.9
		c6.4,0,11.6,5.2,11.6,11.6V387.4z"/>
	<path fill="#FFAB07" d="M321,403.8c0,5-2.3,9.2-6.3,9.2h-53.4c-4,0-7.3-4.2-7.3-9.2v-92.1c0-5,3.3-8.7,7.3-8.7h53.4
		c4,0,6.3,3.6,6.3,8.7V403.8z"/>
</g>
<g id="mob">
	<g id="ss_1_">
		<g id="Rounded_Rectangle_1">
			<g>
				<path fill="#F7F7F7" d="M308.2,310.7h-42.7c-1.6,0-2.9,1.3-2.9,2.9v79.9c0,3.2,2.6,5.8,5.8,5.8h39.8c1.6,0,2.9-1.3,2.9-2.9
					v-82.8C311.1,312,309.8,310.7,308.2,310.7z"/>
			</g>
		</g>
	</g>
</g>
</svg>
