<?xml version="1.0" encoding="utf-8"?>
<!-- Generator: Adobe Illustrator 19.0.0, SVG Export Plug-In . SVG Version: 6.00 Build 0)  -->
<svg version="1.1" id="Layer_1" xmlns="http://www.w3.org/2000/svg" xmlns:xlink="http://www.w3.org/1999/xlink" x="0px" y="0px"
	 viewBox="-79 81 400 400" enable-background="new -79 81 400 400" xml:space="preserve">
<g id="Layer_1_1_">
	<rect x="-78" y="81" fill="#F7F7F7" width="399" height="400"/>
	<rect x="-79" y="81" fill="#FFAB07" width="400" height="401"/>
</g>
<g id="people">
	<circle fill="#F7F7F7" cx="110.7" cy="252.7" r="23.3"/>
	<circle fill="#F7F7F7" cx="162" cy="265.5" r="18"/>
	<path fill="#F7F7F7" d="M144,320c0,21.4-64.7,21.4-64.7,0s14.5-38.7,32.3-38.7S144,298.6,144,320z"/>
	<path fill="#F7F7F7" d="M183.3,313c0,13-44,13-44,0c0-12,9.8-22.7,22-22.7C173.5,290.3,183.3,301,183.3,313z"/>
</g>
<g id="circle">
	<g>
		<g>
			<path fill="#F7F7F7" d="M14.4,166.1c3.7-2.7,7-6,10.6-8.8c9.1-7,18.9-13,29.2-18.2c30.6-15.4,65.6-20.4,98.8-11.1
				c5.6,1.6,8-7.1,2.4-8.7c-34.3-9.6-69.7-4.7-101.7,10.1C42.6,134.6,32,141,22.2,148.3c-3.2,2.4-6.4,4.8-9.4,7.4
				c-0.9,0.8-1.8,1.5-2.7,2.3c-0.4,0.4-2.1,1.7-0.2,0.3C5.2,161.7,9.7,169.6,14.4,166.1L14.4,166.1z"/>
		</g>
	</g>
	<g>
		<g>
			<path fill="#F7F7F7" d="M264.9,247.4c0.1,4.7,1,9.4,1.2,14.1c0.5,11.3,0,22.7-1.6,33.9c-4.9,34.1-20.4,65.5-47,87.8
				c-4.5,3.7,1.9,10.1,6.4,6.4c27.2-22.7,43.4-54.9,49-89.6c2-12.2,2.7-24.7,2.3-37.1c-0.2-5.2-1.2-10.3-1.3-15.5
				C273.7,241.6,264.7,241.6,264.9,247.4L264.9,247.4z"/>
		</g>
	</g>
	<g>
		<g>
			<path fill="#F7F7F7" d="M48.2,408c-3.7-2.8-8-5.1-11.8-7.8c-9.2-6.6-17.7-14.3-25.5-22.5c-23.3-24.6-38.1-56.2-39-90.3
				c-0.1-5.8-9.1-5.8-9,0c0.9,36,16.2,68.9,40.2,95.2c8.4,9.1,17.7,17.3,27.7,24.6c4.1,3.1,8.8,5.5,12.9,8.6
				C48.3,419.3,52.7,411.5,48.2,408L48.2,408z"/>
		</g>
	</g>
</g>
<g id="speach">
	<path fill="#F7F7F7" d="M275.1,147H182c-5.5,0-9.9,4.4-9.9,9.9V208c0,5.5,4.4,9.9,9.9,9.9h6.1v20l21.4-20h65.6
		c5.5,0,9.9-4.4,9.9-9.9v-51.1C285,151.4,280.6,147,275.1,147z"/>
</g>
<g id="mail">
	<g>
		<path fill="#F7F7F7" d="M191,440c0,5.5-4.5,10-10,10H87c-5.5,0-10-4.5-10-10v-51c0-5.5,4.5-10,10-10h94c5.5,0,10,4.5,10,10V440z"
			/>
		<g>
			<g>
				<path fill="#FFAB07" d="M93.5,397.3c12.6,9.3,25.1,18.7,37.7,28c4.7,3.5,9.1-4.4,4.5-7.8c-12.6-9.3-25.1-18.7-37.7-28
					C93.4,386.1,88.9,393.9,93.5,397.3L93.5,397.3z"/>
			</g>
		</g>
		<g>
			<g>
				<path fill="#FFAB07" d="M169.2,389.5c-12.6,9.3-25.1,18.7-37.7,28c-4.6,3.4-0.1,11.2,4.5,7.8c12.6-9.3,25.1-18.7,37.7-28
					C178.3,393.9,173.8,386.1,169.2,389.5L169.2,389.5z"/>
			</g>
		</g>
	</g>
</g>
<g id="thumb">
	<g>
		<path fill="#F7F7F7" d="M21.9,209H5v-19c0,0-5-10.3-12.5-1.3l-7.2,19.8l-3.4,0.5h-0.1c-3.4,0-5.8,2.4-5.8,5.4V235
			c0,3,2.4,5.9,5.8,5.9c0,0,3.4,0.7,7.5,4.9s2.1,4.1,4.1,4.1h30.1c2.5,0,4.6-2.9,4.6-5.9v-9v-11.6v-9C28,211.4,25.3,209,21.9,209z"
			/>
		<path fill="#F7F7F7" d="M-37,204h-13c-2.8,0-5,2.2-5,5v34c0,2.8,2.2,5,5,5h13c2.8,0,5-2.2,5-5v-34C-32,206.2-34.2,204-37,204z"/>
	</g>
</g>
</svg>
