<?xml version="1.0" encoding="utf-8"?>
<!-- Generator: Adobe Illustrator 17.1.0, SVG Export Plug-In . SVG Version: 6.00 Build 0)  -->
<!DOCTYPE svg PUBLIC "-//W3C//DTD SVG 1.1//EN" "http://www.w3.org/Graphics/SVG/1.1/DTD/svg11.dtd">
<svg version="1.1" xmlns="http://www.w3.org/2000/svg" xmlns:xlink="http://www.w3.org/1999/xlink" x="0px" y="0px"
	 viewBox="0 0 400 400" enable-background="new 0 0 400 400" xml:space="preserve">
<g id="Layer_1">
	<rect x="1" fill="#F7F7F7" width="399" height="400"/>
	<rect fill="#92A2A5" width="400" height="401"/>
</g>
<g id="Layer_4">
	<path fill="#F7F7F7" d="M331.9,63H33.6C27.2,63,22,68.2,22,74.6v190.8c0,6.4,5.2,11.6,11.6,11.6h116.9c-8.3,8-20.9,28.7-20.9,28.7
		c0,6.4,5.2,11.3,11.6,11.3h92.5c6.4,0,11.6-4.9,11.6-11.3c0,0-12.8-20.7-21.3-28.7h108c6.4,0,12.1-5.3,12.1-11.6V74.6
		C344,68.2,338.3,63,331.9,63z"/>
	<path fill="#92A2A5" d="M364,298.9c0,6.4-4.5,12.1-11.4,12.1H261c-6.8,0-13-5.7-13-12.1V182.1c0-6.4,6.2-11.1,13-11.1h91.6
		c6.8,0,11.4,4.7,11.4,11.1V298.9z"/>
</g>
<g id="Layer_3">
	<path fill="#F7F7F7" d="M365,306.4c0,6.4-5.2,11.6-11.6,11.6h-85.9c-6.4,0-11.6-5.2-11.6-11.6V189.6c0-6.4,5.2-11.6,11.6-11.6h85.9
		c6.4,0,11.6,5.2,11.6,11.6V306.4z"/>
	<path fill="#92A2A5" d="M400,322.8c0,5-2.3,9.2-6.3,9.2h-53.4c-4,0-7.3-4.2-7.3-9.2v-92.1c0-5,3.3-8.7,7.3-8.7h53.4
		c4,0,6.3,3.6,6.3,8.7V322.8z"/>
</g>
<g id="mob">
	<g id="ss_1_">
		<g id="Rounded_Rectangle_1">
			<g>
				<path fill="#F7F7F7" d="M387.2,229.7h-42.7c-1.6,0-2.9,1.3-2.9,2.9v79.9c0,3.2,2.6,5.8,5.8,5.8h39.8c1.6,0,2.9-1.3,2.9-2.9
					v-82.8C390.1,231,388.8,229.7,387.2,229.7z"/>
			</g>
		</g>
	</g>
</g>
</svg>
